<svg xmlns="http://www.w3.org/2000/svg" width="250" height="133" viewBox="0 0 250 133"><defs><style>.a{mix-blend-mode:multiply;isolation:isolate;}.b{fill:#1e868c;}</style></defs><g class="a"><g transform="translate(0 86.113)"><path class="b" d="M432.8,422.784l-8.852-12.126-3.3,3.418v8.708h-6.282V394.3h6.282v12.451L432.225,394.3h7.588l-11.626,12.084,12.156,16.4Z" transform="translate(-414.358 -393.813)"/><path class="b" d="M474.8,422.784V394.3H496.34v5.574h-15.3v5.778H494.5v5.575H481.042v5.982h15.5v5.575Z" transform="translate(-440.944 -393.813)"/><path class="b" d="M542.886,411.432v11.353H536.6V411.553L525.631,394.3h7.343l6.812,11.434,6.935-11.434h7.139Z" transform="translate(-464.075 -393.813)"/><path class="b" d="M596.369,422.869a18.2,18.2,0,0,1-12.116-4.558l3.713-4.435a13.117,13.117,0,0,0,8.525,3.459c2.57,0,4.12-1.017,4.12-2.686v-.082c0-1.587-.979-2.4-5.752-3.621-5.752-1.465-9.464-3.052-9.464-8.708v-.081c0-5.167,4.161-8.586,9.994-8.586A16.553,16.553,0,0,1,606,397.193l-3.263,4.719a13.422,13.422,0,0,0-7.424-2.807c-2.407,0-3.672,1.1-3.672,2.482v.082c0,1.871,1.224,2.482,6.16,3.744,5.792,1.505,9.056,3.581,9.056,8.545v.081C606.853,419.695,602.528,422.869,596.369,422.869Z" transform="translate(-490.238 -393.491)"/><path class="b" d="M651.875,400.078v22.706h-6.282V400.078H636.9V394.3h23.66v5.777Z" transform="translate(-513.761 -393.813)"/><path class="b" d="M705.71,422.887c-8.812,0-15.135-6.551-15.135-14.649v-.082c0-8.1,6.4-14.729,15.216-14.729s15.134,6.551,15.134,14.649v.08C720.925,416.254,714.521,422.887,705.71,422.887Zm8.648-14.731a8.664,8.664,0,0,0-8.648-8.951,8.528,8.528,0,0,0-8.567,8.871v.08a8.664,8.664,0,0,0,8.648,8.952,8.528,8.528,0,0,0,8.567-8.871Z" transform="translate(-537.79 -393.427)"/><path class="b" d="M782.043,422.784l-13.829-18.108v18.108h-6.2V394.3h5.792l13.38,17.537V394.3h6.2v28.483Z" transform="translate(-570.061 -393.813)"/><path class="b" d="M826.826,422.784V394.3h21.538v5.574h-15.3v5.778h13.461v5.575H833.067v5.982h15.5v5.575Z" transform="translate(-598.569 -393.813)"/></g><g transform="translate(26.437 126.726)"><path class="b" d="M463.665,472.365h-2.111V466.3h2.111a3.039,3.039,0,1,1,0,6.066Zm0-5.433h-1.424v4.8h1.424a2.4,2.4,0,1,0,0-4.8Z" transform="translate(-461.554 -466.196)"/><path class="b" d="M482.728,466.923h-3.71v2.071h3.319v.624h-3.319v2.123h3.753v.624h-4.439V466.3h4.4Z" transform="translate(-468.934 -466.196)"/><path class="b" d="M495.241,468.935c1.354.294,1.98.788,1.98,1.724,0,1.049-.868,1.724-2.076,1.724a3.564,3.564,0,0,1-2.484-.97l.426-.5a2.9,2.9,0,0,0,2.085.858c.817,0,1.355-.425,1.355-1.04,0-.571-.3-.892-1.581-1.161-1.4-.3-2.041-.753-2.041-1.758a1.789,1.789,0,0,1,2-1.664,3.174,3.174,0,0,1,2.136.745l-.4.529a2.67,2.67,0,0,0-1.754-.659c-.79,0-1.294.433-1.294.988C493.589,468.329,493.9,468.649,495.241,468.935Z" transform="translate(-475.236 -466.128)"/><path class="b" d="M512.971,472.331h-.739l-.712-1.6h-3.309l-.721,1.6h-.7l2.771-6.109h.643Zm-3.1-5.311-1.39,3.093h2.77Z" transform="translate(-481.449 -466.162)"/><path class="b" d="M528.806,472.365l-1.763-2.357H525.3v2.357h-.687V466.3h2.615c1.338,0,2.2.72,2.2,1.812a1.78,1.78,0,0,1-1.651,1.776l1.868,2.478Zm-1.625-5.433H525.3v2.461h1.868c.913,0,1.563-.468,1.563-1.257C528.736,467.383,528.163,466.932,527.181,466.932Z" transform="translate(-489.798 -466.196)"/><path class="b" d="M544.669,472.365l-1.763-2.357h-1.738v2.357h-.686V466.3H543.1c1.338,0,2.2.72,2.2,1.812a1.779,1.779,0,0,1-1.65,1.776l1.867,2.478Zm-1.624-5.433h-1.877v2.461h1.868c.911,0,1.564-.468,1.564-1.257C544.6,467.383,544.026,466.932,543.045,466.932Z" transform="translate(-496.903 -466.196)"/><path class="b" d="M558.956,472.388a3.137,3.137,0,1,1,3.109-3.145A3.05,3.05,0,0,1,558.956,472.388Zm0-5.641a2.388,2.388,0,0,0-2.381,2.5,2.417,2.417,0,0,0,2.4,2.513,2.388,2.388,0,0,0,2.38-2.5A2.417,2.417,0,0,0,558.956,466.747Z" transform="translate(-503.796 -466.114)"/><path class="b" d="M574.176,466.3h.687v5.433h3.422v.633h-4.109Z" transform="translate(-511.988 -466.196)"/><path class="b" d="M588.426,466.3h.687v5.433h3.422v.633h-4.109Z" transform="translate(-518.37 -466.196)"/><path class="b" d="M604.668,472.388a3.137,3.137,0,1,1,3.109-3.145A3.05,3.05,0,0,1,604.668,472.388Zm0-5.641a2.388,2.388,0,0,0-2.381,2.5,2.417,2.417,0,0,0,2.4,2.513,2.388,2.388,0,0,0,2.38-2.5A2.417,2.417,0,0,0,604.668,466.747Z" transform="translate(-524.27 -466.114)"/><path class="b" d="M621.677,468.935c1.356.294,1.981.788,1.981,1.724,0,1.049-.869,1.724-2.076,1.724a3.563,3.563,0,0,1-2.485-.97l.426-.5a2.9,2.9,0,0,0,2.084.858c.817,0,1.356-.425,1.356-1.04,0-.571-.3-.892-1.581-1.161-1.4-.3-2.041-.753-2.041-1.758a1.789,1.789,0,0,1,2-1.664,3.176,3.176,0,0,1,2.138.745l-.4.529a2.672,2.672,0,0,0-1.755-.659c-.79,0-1.294.433-1.294.988C620.027,468.329,620.339,468.649,621.677,468.935Z" transform="translate(-532.108 -466.128)"/><path class="b" d="M645.557,468.935c1.355.294,1.98.788,1.98,1.724,0,1.049-.868,1.724-2.076,1.724a3.564,3.564,0,0,1-2.485-.97l.426-.5a2.9,2.9,0,0,0,2.084.858c.817,0,1.356-.425,1.356-1.04,0-.571-.3-.892-1.581-1.161-1.4-.3-2.041-.753-2.041-1.758a1.789,1.789,0,0,1,2-1.664,3.175,3.175,0,0,1,2.137.745l-.4.529a2.674,2.674,0,0,0-1.755-.659c-.79,0-1.293.433-1.293.988C643.906,468.329,644.218,468.649,645.557,468.935Z" transform="translate(-542.802 -466.128)"/><path class="b" d="M663.16,469.774a2.535,2.535,0,1,1-5.064.052V466.3h.686v3.484a1.786,1.786,0,0,0,1.859,2.045,1.746,1.746,0,0,0,1.833-2V466.3h.686Z" transform="translate(-549.577 -466.196)"/><path class="b" d="M676.554,468.935c1.354.294,1.98.788,1.98,1.724,0,1.049-.868,1.724-2.076,1.724a3.564,3.564,0,0,1-2.484-.97l.426-.5a2.9,2.9,0,0,0,2.085.858c.817,0,1.355-.425,1.355-1.04,0-.571-.3-.892-1.581-1.161-1.4-.3-2.041-.753-2.041-1.758a1.789,1.789,0,0,1,2-1.664,3.173,3.173,0,0,1,2.136.745l-.4.529a2.669,2.669,0,0,0-1.754-.659c-.79,0-1.294.433-1.294.988C674.9,468.329,675.215,468.649,676.554,468.935Z" transform="translate(-556.684 -466.128)"/><path class="b" d="M690.991,472.365h-.7v-5.433h-2.041V466.3h4.777v.633h-2.041Z" transform="translate(-563.082 -466.196)"/><path class="b" d="M708.126,466.923h-3.71v2.071h3.319v.624h-3.319v2.123h3.753v.624H703.73V466.3h4.4Z" transform="translate(-570.009 -466.196)"/><path class="b" d="M723.244,466.3h.669v6.066h-.547l-3.927-4.974v4.974h-.669V466.3h.643l3.831,4.862Z" transform="translate(-576.752 -466.196)"/><path class="b" d="M737.634,472.365h-.695v-5.433H734.9V466.3h4.777v.633h-2.042Z" transform="translate(-583.971 -466.196)"/><path class="b" d="M754.232,472.331h-.739l-.712-1.6h-3.309l-.721,1.6h-.7l2.771-6.109h.644Zm-3.1-5.311-1.39,3.093h2.771Z" transform="translate(-590.353 -466.162)"/><path class="b" d="M770.449,467.816a1.469,1.469,0,0,1-.965,1.413c.721.217,1.3.633,1.3,1.473,0,1.049-.878,1.664-2.208,1.664h-2.7V466.3h2.589C769.667,466.3,770.449,466.889,770.449,467.816Zm-.7.1c0-.606-.477-1-1.347-1h-1.85V469h1.8C769.179,469,769.753,468.63,769.753,467.911Zm.339,2.747c0-.667-.556-1.048-1.615-1.048h-1.92v2.14H768.6C769.518,471.75,770.092,471.342,770.092,470.658Z" transform="translate(-598.198 -466.196)"/><path class="b" d="M781.725,466.3h.687v5.433h3.422v.633h-4.109Z" transform="translate(-605.167 -466.196)"/><path class="b" d="M800.37,466.923h-3.709v2.071h3.318v.624h-3.318v2.123h3.752v.624h-4.439V466.3h4.4Z" transform="translate(-611.435 -466.196)"/><path class="b" d="M812.884,468.935c1.355.294,1.981.788,1.981,1.724,0,1.049-.869,1.724-2.076,1.724a3.563,3.563,0,0,1-2.484-.97l.425-.5a2.9,2.9,0,0,0,2.086.858c.816,0,1.354-.425,1.354-1.04,0-.571-.3-.892-1.58-1.161-1.4-.3-2.042-.753-2.042-1.758a1.789,1.789,0,0,1,2-1.664,3.175,3.175,0,0,1,2.137.745l-.4.529a2.67,2.67,0,0,0-1.754-.659c-.791,0-1.294.433-1.294.988C811.233,468.329,811.547,468.649,812.884,468.935Z" transform="translate(-617.738 -466.128)"/></g><g transform="translate(87.254)"><path class="b" d="M596.217,332.752h19.968v-9.816L589.323,305.4Z" transform="translate(-579.964 -268.258)"/><path class="b" d="M583.875,283.677l27.959,18.256V274.467l-32.406-8.434Z" transform="translate(-575.611 -250.889)"/><path class="b" d="M600.19,255.213l15.956,4.152V238.929H589.232Z" transform="translate(-579.923 -238.929)"/><path class="b" d="M642.72,238.929v36.6l30.751-14.894,5.471-21.711Z" transform="translate(-603.451 -238.929)"/><path class="b" d="M578.253,238.929h-5.638l2.969,11.782,12.848,3.344Z" transform="translate(-572.614 -238.929)"/><path class="b" d="M686.8,291.984l1.843-7.311-9.226,4.468Z" transform="translate(-619.592 -259.114)"/><path class="b" d="M642.72,328.57h19.969l7.221-28.653-10.383-4L642.72,304.06Z" transform="translate(-603.451 -264.076)"/></g></g></svg>