<svg xmlns="http://www.w3.org/2000/svg" width="400" height="357" viewBox="0 0 400 357"><defs><style>.a{fill:none;}.b{mix-blend-mode:multiply;isolation:isolate;}.c{fill:#1e868c;}</style></defs><g transform="translate(-445 -835)"><rect class="a" width="400" height="357" transform="translate(445 835)"/><g class="b" transform="translate(480 926)"><g transform="translate(0 113.954)"><path class="c" d="M438.7,431.993l-11.685-16.047-4.362,4.524v11.523h-8.292V394.3h8.292v16.477L437.942,394.3h10.016l-15.346,15.991,16.046,21.7Z" transform="translate(-414.358 -393.655)"/><path class="c" d="M474.8,431.993V394.3h28.431v7.376H483.039v7.646h17.77V416.7h-17.77v7.916H503.5v7.377Z" transform="translate(-430.11 -393.655)"/><path class="c" d="M548.408,416.97v15.023h-8.292V417.131L525.631,394.3h9.693l8.992,15.13,9.154-15.13h9.424Z" transform="translate(-444.377 -393.655)"/><path class="c" d="M600.246,432.341a23.989,23.989,0,0,1-15.993-6.031l4.9-5.869c3.392,2.8,6.946,4.578,11.254,4.578,3.393,0,5.439-1.346,5.439-3.554v-.108c0-2.1-1.292-3.176-7.592-4.792-7.593-1.939-12.493-4.039-12.493-11.523v-.107c0-6.838,5.492-11.362,13.192-11.362a21.816,21.816,0,0,1,14,4.793l-4.308,6.245c-3.339-2.315-6.623-3.715-9.8-3.715S594,402.348,594,404.179v.108c0,2.476,1.615,3.284,8.131,4.954,7.646,1.992,11.954,4.739,11.954,11.307v.107C614.085,428.141,608.376,432.341,600.246,432.341Z" transform="translate(-460.154 -393.465)"/><path class="c" d="M656.666,401.946v30.047h-8.292V401.946H636.9V394.3h31.231v7.645Z" transform="translate(-474.355 -393.655)"/><path class="c" d="M710.553,432.411c-11.631,0-19.978-8.669-19.978-19.385v-.108c0-10.715,8.453-19.491,20.085-19.491s19.977,8.669,19.977,19.385v.106C730.637,423.634,722.183,432.411,710.553,432.411Zm11.415-19.493c0-6.461-4.74-11.845-11.415-11.845s-11.308,5.276-11.308,11.739v.106c0,6.462,4.739,11.847,11.415,11.847s11.308-5.276,11.308-11.739Z" transform="translate(-488.899 -393.427)"/><path class="c" d="M788.452,431.993,770.2,408.031v23.962h-8.184V394.3h7.646l17.662,23.207V394.3h8.185v37.692Z" transform="translate(-508.636 -393.655)"/><path class="c" d="M826.826,431.993V394.3h28.43v7.376H835.064v7.646h17.769V416.7H835.064v7.916h20.462v7.377Z" transform="translate(-525.526 -393.655)"/></g><g transform="translate(34.896 167.698)"><path class="c" d="M464.341,474.327h-2.787V466.3h2.787a4.021,4.021,0,1,1,0,8.028Zm0-7.19h-1.88v6.352h1.88a3.179,3.179,0,1,0,0-6.352Z" transform="translate(-461.554 -466.162)"/><path class="c" d="M484.135,467.125h-4.9v2.741h4.381v.826h-4.381V473.5h4.954v.826h-5.859V466.3h5.8Z" transform="translate(-465.927 -466.162)"/><path class="c" d="M496.066,469.838c1.788.389,2.614,1.043,2.614,2.282,0,1.388-1.146,2.281-2.741,2.281a4.7,4.7,0,0,1-3.279-1.284l.562-.665a3.822,3.822,0,0,0,2.752,1.136c1.078,0,1.789-.562,1.789-1.377,0-.756-.4-1.181-2.087-1.536-1.846-.4-2.694-1-2.694-2.327a2.363,2.363,0,0,1,2.637-2.2,4.183,4.183,0,0,1,2.82.986l-.528.7a3.518,3.518,0,0,0-2.316-.872c-1.043,0-1.709.573-1.709,1.307C493.887,469.035,494.3,469.459,496.066,469.838Z" transform="translate(-469.661 -466.122)"/><path class="c" d="M514.95,474.307h-.975l-.94-2.121h-4.368l-.952,2.121h-.929l3.658-8.085h.849Zm-4.093-7.029-1.834,4.093h3.657Z" transform="translate(-473.342 -466.142)"/><path class="c" d="M530.146,474.327l-2.328-3.119h-2.294v3.119h-.906V466.3h3.452c1.766,0,2.9.952,2.9,2.4a2.353,2.353,0,0,1-2.18,2.351l2.466,3.279ZM528,467.137h-2.476v3.257h2.465c1.2,0,2.064-.62,2.064-1.664C530.053,467.733,529.3,467.137,528,467.137Z" transform="translate(-478.655 -466.162)"/><path class="c" d="M546.008,474.327l-2.328-3.119h-2.294v3.119h-.9V466.3h3.452c1.766,0,2.9.952,2.9,2.4a2.351,2.351,0,0,1-2.178,2.351l2.465,3.279Zm-2.144-7.19h-2.478v3.257h2.466c1.2,0,2.064-.62,2.064-1.664C545.917,467.733,545.16,467.137,543.865,467.137Z" transform="translate(-482.957 -466.162)"/><path class="c" d="M559.946,474.416a4.151,4.151,0,1,1,4.1-4.162A4.032,4.032,0,0,1,559.946,474.416Zm0-7.465a3.157,3.157,0,0,0-3.143,3.3,3.194,3.194,0,0,0,3.165,3.325,3.156,3.156,0,0,0,3.142-3.3A3.194,3.194,0,0,0,559.946,466.951Z" transform="translate(-487.134 -466.114)"/><path class="c" d="M574.176,466.3h.906v7.19H579.6v.838h-5.423Z" transform="translate(-492.089 -466.162)"/><path class="c" d="M588.426,466.3h.906v7.19h4.517v.838h-5.423Z" transform="translate(-495.952 -466.162)"/><path class="c" d="M605.658,474.416a4.151,4.151,0,1,1,4.1-4.162A4.032,4.032,0,0,1,605.658,474.416Zm0-7.465a3.157,3.157,0,0,0-3.143,3.3,3.194,3.194,0,0,0,3.165,3.325,3.156,3.156,0,0,0,3.142-3.3A3.194,3.194,0,0,0,605.658,466.951Z" transform="translate(-499.533 -466.114)"/><path class="c" d="M622.5,469.838c1.789.389,2.615,1.043,2.615,2.282,0,1.388-1.147,2.281-2.74,2.281a4.7,4.7,0,0,1-3.28-1.284l.563-.665a3.818,3.818,0,0,0,2.751,1.136c1.079,0,1.789-.562,1.789-1.377,0-.756-.4-1.181-2.087-1.536-1.846-.4-2.694-1-2.694-2.327a2.364,2.364,0,0,1,2.637-2.2,4.185,4.185,0,0,1,2.822.986l-.528.7a3.522,3.522,0,0,0-2.317-.872c-1.043,0-1.708.573-1.708,1.307C620.324,469.035,620.737,469.459,622.5,469.838Z" transform="translate(-504.271 -466.122)"/><path class="c" d="M646.382,469.838c1.789.389,2.614,1.043,2.614,2.282,0,1.388-1.146,2.281-2.74,2.281a4.7,4.7,0,0,1-3.28-1.284l.563-.665a3.819,3.819,0,0,0,2.751,1.136c1.079,0,1.789-.562,1.789-1.377,0-.756-.4-1.181-2.087-1.536-1.846-.4-2.694-1-2.694-2.327a2.364,2.364,0,0,1,2.637-2.2,4.185,4.185,0,0,1,2.821.986l-.527.7a3.525,3.525,0,0,0-2.317-.872c-1.042,0-1.707.573-1.707,1.307C644.2,469.035,644.616,469.459,646.382,469.838Z" transform="translate(-510.746 -466.122)"/><path class="c" d="M664.78,470.9c0,2.339-1.341,3.554-3.348,3.554a3.144,3.144,0,0,1-3.336-3.485V466.3h.9v4.611c0,1.731.918,2.706,2.454,2.706,1.48,0,2.419-.895,2.419-2.649V466.3h.906Z" transform="translate(-514.851 -466.162)"/><path class="c" d="M677.379,469.838c1.788.389,2.614,1.043,2.614,2.282,0,1.388-1.146,2.281-2.741,2.281a4.7,4.7,0,0,1-3.279-1.284l.562-.665a3.822,3.822,0,0,0,2.752,1.136c1.078,0,1.789-.562,1.789-1.377,0-.756-.4-1.181-2.086-1.536-1.846-.4-2.694-1-2.694-2.327a2.363,2.363,0,0,1,2.637-2.2,4.182,4.182,0,0,1,2.82.986l-.528.7a3.517,3.517,0,0,0-2.316-.872c-1.043,0-1.709.573-1.709,1.307C675.2,469.035,675.613,469.459,677.379,469.838Z" transform="translate(-519.151 -466.122)"/><path class="c" d="M691.867,474.327h-.918v-7.19h-2.694V466.3h6.306v.838h-2.694Z" transform="translate(-523.026 -466.162)"/><path class="c" d="M709.533,467.125h-4.9v2.741h4.381v.826h-4.381V473.5h4.954v.826h-5.86V466.3h5.8Z" transform="translate(-527.218 -466.162)"/><path class="c" d="M724.676,466.3h.883v8.028h-.722l-5.183-6.582v6.582h-.883V466.3h.848l5.057,6.434Z" transform="translate(-531.306 -466.162)"/><path class="c" d="M738.509,474.327h-.917v-7.19H734.9V466.3H741.2v.838h-2.7Z" transform="translate(-535.674 -466.162)"/><path class="c" d="M756.211,474.307h-.975l-.94-2.121h-4.368l-.952,2.121h-.93l3.658-8.085h.85Zm-4.093-7.029-1.835,4.093h3.658Z" transform="translate(-539.892 -466.142)"/><path class="c" d="M771.911,468.307a1.944,1.944,0,0,1-1.273,1.869,2.025,2.025,0,0,1,1.721,1.949c0,1.388-1.159,2.2-2.914,2.2h-3.565V466.3H769.3C770.879,466.3,771.911,467.08,771.911,468.307Zm-.918.126c0-.8-.63-1.318-1.778-1.318h-2.441v2.764h2.373C770.236,469.878,770.993,469.384,770.993,468.432Zm.447,3.636c0-.883-.733-1.387-2.132-1.387h-2.534v2.832h2.694C770.683,473.513,771.44,472.973,771.44,472.068Z" transform="translate(-544.539 -466.162)"/><path class="c" d="M781.725,466.3h.906v7.19h4.517v.838h-5.423Z" transform="translate(-548.669 -466.162)"/><path class="c" d="M801.777,467.125h-4.9v2.741h4.379v.826h-4.379V473.5h4.953v.826h-5.86V466.3h5.8Z" transform="translate(-552.383 -466.162)"/><path class="c" d="M813.71,469.838c1.789.389,2.614,1.043,2.614,2.282,0,1.388-1.147,2.281-2.741,2.281a4.7,4.7,0,0,1-3.279-1.284l.561-.665a3.823,3.823,0,0,0,2.753,1.136c1.077,0,1.788-.562,1.788-1.377,0-.756-.4-1.181-2.086-1.536-1.847-.4-2.7-1-2.7-2.327a2.364,2.364,0,0,1,2.637-2.2,4.185,4.185,0,0,1,2.821.986l-.528.7a3.519,3.519,0,0,0-2.316-.872c-1.044,0-1.709.573-1.709,1.307C811.531,469.035,811.944,469.459,813.71,469.838Z" transform="translate(-556.117 -466.122)"/></g><g transform="translate(115.175)"><path class="c" d="M598.424,341.6h26.358V328.607L589.323,305.4Z" transform="translate(-576.969 -256.251)"/><path class="c" d="M585.3,289.382,622.2,313.541V277.194l-42.775-11.16Z" transform="translate(-574.39 -245.993)"/><path class="c" d="M603.7,260.478l21.061,5.495V238.929H589.232Z" transform="translate(-576.945 -238.929)"/><path class="c" d="M642.72,238.929v48.44l40.591-19.709,7.222-28.73Z" transform="translate(-590.885 -238.929)"/><path class="c" d="M580.057,238.929h-7.443l3.919,15.591,16.96,4.425Z" transform="translate(-572.614 -238.929)"/><path class="c" d="M689.162,294.348l2.432-9.675-12.178,5.913Z" transform="translate(-600.448 -250.85)"/><path class="c" d="M642.72,339.127h26.359l9.532-37.917-13.705-5.291L642.72,306.692Z" transform="translate(-590.885 -253.781)"/></g></g></g></svg>