<svg xmlns="http://www.w3.org/2000/svg" width="210" height="30" viewBox="0 0 210 30"><defs><style>.a{isolation:isolate;}.b{fill:#1e868c;}</style></defs><g class="a" transform="translate(-1927.699 -673.517)"><g transform="translate(1974.731 673.517)"><path class="b" d="M2069.826,692.615l-5.707-7.759-2.13,2.187v5.571h-4.05V674.391h4.05v7.967l7.469-7.967h4.892l-7.5,7.732,7.837,10.492Z" transform="translate(-2057.939 -674.079)"/><path class="b" d="M2118.382,692.615V674.391h13.886v3.566h-9.862v3.7h8.678v3.566h-8.678v3.827h9.994v3.567Z" transform="translate(-2096.555 -674.079)"/><path class="b" d="M2180.336,685.352v7.264h-4.05V685.43l-7.074-11.039h4.734l4.392,7.316,4.471-7.316h4.6Z" transform="translate(-2129.029 -674.079)"/><path class="b" d="M2235.645,692.407a11.784,11.784,0,0,1-7.811-2.916l2.393-2.838a8.49,8.49,0,0,0,5.5,2.213c1.657,0,2.656-.651,2.656-1.718V687.1c0-1.016-.632-1.536-3.708-2.317-3.708-.937-6.1-1.953-6.1-5.571v-.052c0-3.306,2.683-5.493,6.443-5.493a10.724,10.724,0,0,1,6.838,2.318l-2.1,3.019a8.7,8.7,0,0,0-4.787-1.8c-1.552,0-2.367.7-2.367,1.588v.052c0,1.2.789,1.588,3.971,2.4,3.734.964,5.838,2.291,5.838,5.467v.052C2242.4,690.376,2239.616,692.407,2235.645,692.407Z" transform="translate(-2166.481 -673.61)"/><path class="b" d="M2290.137,678.088v14.528h-4.05V678.088h-5.6v-3.7h15.253v3.7Z" transform="translate(-2200.119 -674.079)"/><path class="b" d="M2343.913,692.366a9.387,9.387,0,0,1-9.757-9.373v-.052a9.791,9.791,0,0,1,19.566-.052v.052A9.474,9.474,0,0,1,2343.913,692.366Zm5.575-9.425a5.562,5.562,0,0,0-5.575-5.728,5.475,5.475,0,0,0-5.523,5.676v.052a5.563,5.563,0,0,0,5.575,5.728,5.476,5.476,0,0,0,5.523-5.676Z" transform="translate(-2234.408 -673.517)"/><path class="b" d="M2418.508,692.615l-8.915-11.586v11.586h-4V674.391h3.734l8.626,11.221V674.391h4v18.224Z" transform="translate(-2280.05 -674.079)"/><path class="b" d="M2470.406,692.615V674.391h13.886v3.566h-9.862v3.7h8.679v3.566h-8.679v3.827h9.994v3.567Z" transform="translate(-2321.456 -674.079)"/></g><g transform="translate(1974.731 699.503)"><path class="b" d="M2059.3,750.271h-1.361V746.39h1.361a1.945,1.945,0,1,1,0,3.881Zm0-3.476h-.918v3.071h.918a1.538,1.538,0,1,0,0-3.071Z" transform="translate(-2057.939 -746.323)"/><path class="b" d="M2077.551,746.789h-2.392v1.325h2.14v.4h-2.14v1.358h2.42v.4h-2.862V746.39h2.834Z" transform="translate(-2068.658 -746.323)"/><path class="b" d="M2090.708,748.021c.873.188,1.277.5,1.277,1.1,0,.671-.56,1.1-1.339,1.1a2.308,2.308,0,0,1-1.6-.621l.274-.321a1.877,1.877,0,0,0,1.344.549c.526,0,.873-.272.873-.666,0-.366-.2-.571-1.019-.743-.9-.194-1.316-.482-1.316-1.125a1.15,1.15,0,0,1,1.288-1.065,2.056,2.056,0,0,1,1.377.477l-.258.338a1.731,1.731,0,0,0-1.131-.421c-.51,0-.835.277-.835.632C2089.643,747.632,2089.845,747.838,2090.708,748.021Z" transform="translate(-2077.811 -746.224)"/><path class="b" d="M2107.157,750.222h-.476l-.459-1.026h-2.134l-.465,1.026h-.454l1.786-3.909h.415Zm-2-3.4-.9,1.979h1.787Z" transform="translate(-2086.836 -746.274)"/><path class="b" d="M2123.7,750.271l-1.137-1.508h-1.12v1.508H2121V746.39h1.686c.863,0,1.417.46,1.417,1.159a1.142,1.142,0,0,1-1.065,1.136l1.2,1.586Zm-1.047-3.476h-1.21v1.574h1.2c.588,0,1.008-.3,1.008-.8C2123.657,747.083,2123.288,746.8,2122.655,746.8Z" transform="translate(-2098.229 -746.323)"/><path class="b" d="M2139.565,750.271l-1.137-1.508h-1.12v1.508h-.442V746.39h1.686c.862,0,1.417.46,1.417,1.159a1.142,1.142,0,0,1-1.064,1.136l1.2,1.586Zm-1.047-3.476h-1.21v1.574h1.2c.588,0,1.008-.3,1.008-.8C2139.521,747.083,2139.151,746.8,2138.518,746.8Z" transform="translate(-2108.364 -746.323)"/><path class="b" d="M2154.241,750.218a2.007,2.007,0,1,1,2-2.012A1.959,1.959,0,0,1,2154.241,750.218Zm0-3.609a1.533,1.533,0,0,0-1.535,1.6,1.552,1.552,0,0,0,1.546,1.608,1.533,1.533,0,0,0,1.534-1.6A1.551,1.551,0,0,0,2154.241,746.609Z" transform="translate(-2118.19 -746.204)"/><path class="b" d="M2170.56,746.39H2171v3.476h2.206v.405h-2.649Z" transform="translate(-2129.89 -746.323)"/><path class="b" d="M2184.81,746.39h.443v3.476h2.206v.405h-2.649Z" transform="translate(-2138.994 -746.323)"/><path class="b" d="M2199.953,750.218a2.007,2.007,0,1,1,2-2.012A1.959,1.959,0,0,1,2199.953,750.218Zm0-3.609a1.533,1.533,0,0,0-1.535,1.6,1.552,1.552,0,0,0,1.546,1.608,1.533,1.533,0,0,0,1.534-1.6A1.551,1.551,0,0,0,2199.953,746.609Z" transform="translate(-2147.395 -746.204)"/><path class="b" d="M2217.145,748.021c.874.188,1.277.5,1.277,1.1,0,.671-.56,1.1-1.338,1.1a2.308,2.308,0,0,1-1.6-.621l.275-.321a1.875,1.875,0,0,0,1.344.549c.527,0,.874-.272.874-.666,0-.366-.2-.571-1.02-.743-.9-.194-1.316-.482-1.316-1.125a1.151,1.151,0,0,1,1.288-1.065,2.056,2.056,0,0,1,1.378.477l-.257.338a1.733,1.733,0,0,0-1.132-.421c-.509,0-.834.277-.834.632C2216.081,747.632,2216.282,747.838,2217.145,748.021Z" transform="translate(-2158.589 -746.224)"/><path class="b" d="M2241.024,748.021c.874.188,1.277.5,1.277,1.1,0,.671-.56,1.1-1.338,1.1a2.308,2.308,0,0,1-1.6-.621l.275-.321a1.875,1.875,0,0,0,1.344.549c.527,0,.874-.272.874-.666,0-.366-.2-.571-1.02-.743-.9-.194-1.316-.482-1.316-1.125a1.151,1.151,0,0,1,1.288-1.065,2.058,2.058,0,0,1,1.378.477l-.258.338a1.733,1.733,0,0,0-1.132-.421c-.509,0-.834.277-.834.632C2239.96,747.632,2240.161,747.838,2241.024,748.021Z" transform="translate(-2173.845 -746.224)"/><path class="b" d="M2257.745,748.614a1.634,1.634,0,1,1-3.265.033V746.39h.442v2.229a1.147,1.147,0,0,0,1.2,1.308,1.12,1.12,0,0,0,1.182-1.281V746.39h.442Z" transform="translate(-2183.505 -746.323)"/><path class="b" d="M2272.021,748.021c.873.188,1.277.5,1.277,1.1,0,.671-.56,1.1-1.339,1.1a2.308,2.308,0,0,1-1.6-.621l.274-.321a1.877,1.877,0,0,0,1.344.549c.526,0,.873-.272.873-.666,0-.366-.2-.571-1.019-.743-.9-.194-1.316-.482-1.316-1.125a1.15,1.15,0,0,1,1.288-1.065,2.055,2.055,0,0,1,1.377.477l-.258.338a1.729,1.729,0,0,0-1.131-.421c-.51,0-.835.277-.835.632C2270.956,747.632,2271.158,747.838,2272.021,748.021Z" transform="translate(-2193.649 -746.224)"/><path class="b" d="M2286.4,750.271h-.448V746.8h-1.316v-.405h3.08v.405H2286.4Z" transform="translate(-2202.773 -746.323)"/><path class="b" d="M2302.949,746.789h-2.392v1.325h2.139v.4h-2.139v1.358h2.419v.4h-2.862V746.39h2.834Z" transform="translate(-2212.66 -746.323)"/><path class="b" d="M2318.04,746.39h.431v3.881h-.353l-2.531-3.182v3.182h-.431V746.39h.414l2.47,3.111Z" transform="translate(-2222.27 -746.323)"/><path class="b" d="M2333.046,750.271h-.448V746.8h-1.316v-.405h3.08v.405h-1.316Z" transform="translate(-2232.572 -746.323)"/><path class="b" d="M2348.418,750.222h-.476l-.459-1.026h-2.134l-.465,1.026h-.454l1.786-3.909h.415Zm-2-3.4-.9,1.979h1.786Z" transform="translate(-2240.973 -746.274)"/><path class="b" d="M2365.209,747.36a.941.941,0,0,1-.622.9c.465.138.84.4.84.942,0,.671-.566,1.064-1.423,1.064h-1.742V746.39h1.669C2364.7,746.39,2365.209,746.767,2365.209,747.36Zm-.448.061c0-.388-.308-.638-.868-.638H2362.7v1.337h1.159C2364.391,748.12,2364.76,747.882,2364.76,747.422Zm.219,1.757c0-.427-.358-.671-1.042-.671H2362.7v1.369h1.316C2364.609,749.878,2364.979,749.617,2364.979,749.179Z" transform="translate(-2252.365 -746.323)"/><path class="b" d="M2378.109,746.39h.443v3.476h2.206v.405h-2.649Z" transform="translate(-2262.489 -746.323)"/><path class="b" d="M2395.193,746.789H2392.8v1.325h2.139v.4H2392.8v1.358h2.419v.4h-2.862V746.39h2.834Z" transform="translate(-2271.593 -746.323)"/><path class="b" d="M2408.352,748.021c.873.188,1.277.5,1.277,1.1,0,.671-.56,1.1-1.339,1.1a2.307,2.307,0,0,1-1.6-.621l.274-.321a1.878,1.878,0,0,0,1.344.549c.526,0,.873-.272.873-.666,0-.366-.2-.571-1.019-.743-.9-.194-1.316-.482-1.316-1.125a1.15,1.15,0,0,1,1.288-1.065,2.056,2.056,0,0,1,1.377.477l-.258.338a1.73,1.73,0,0,0-1.131-.421c-.51,0-.834.277-.834.632C2407.287,747.632,2407.489,747.838,2408.352,748.021Z" transform="translate(-2280.748 -746.224)"/></g><g transform="translate(1927.699 673.83)"><path class="b" d="M1942.911,734.778h9.258v-4.517l-12.454-8.071Z" transform="translate(-1935.375 -705.102)"/><path class="b" d="M1934.66,702l12.963,8.4V697.764l-15.024-3.881Z" transform="translate(-1930.829 -686.915)"/><path class="b" d="M1944.73,681.884l7.4,1.911v-9.4h-12.478Z" transform="translate(-1935.333 -674.391)"/><path class="b" d="M1978.115,674.391v16.843l14.257-6.853,2.537-9.99Z" transform="translate(-1959.909 -674.391)"/><path class="b" d="M1930.313,674.391H1927.7l1.377,5.421,5.957,1.539Z" transform="translate(-1927.698 -674.391)"/><path class="b" d="M2007.928,710.652l.854-3.364-4.277,2.056Z" transform="translate(-1976.769 -695.527)"/><path class="b" d="M1978.115,730.4h9.258l3.348-13.184-4.814-1.84-7.792,3.746Z" transform="translate(-1959.909 -700.723)"/></g></g></svg>