<svg xmlns="http://www.w3.org/2000/svg" width="112" height="16" viewBox="0 0 112 16"><defs><style>.a{isolation:isolate;}.b{fill:#fff;}</style></defs><g class="a" transform="translate(-1927.699 -673.517)"><g transform="translate(1952.782 673.517)"><path class="b" d="M2064.279,684.111l-3.043-4.138-1.136,1.167v2.971h-2.16v-9.72h2.16v4.249l3.983-4.249h2.609l-4,4.124,4.179,5.6Z" transform="translate(-2057.939 -674.224)"/><path class="b" d="M2118.382,684.111v-9.72h7.406v1.9h-5.26v1.972h4.629v1.9h-4.629v2.041h5.33v1.9Z" transform="translate(-2106.741 -674.224)"/><path class="b" d="M2175.145,680.237v3.874h-2.16v-3.832l-3.773-5.887h2.525l2.342,3.9,2.384-3.9h2.455Z" transform="translate(-2147.781 -674.224)"/><path class="b" d="M2232,683.659a6.285,6.285,0,0,1-4.166-1.555l1.276-1.514a4.528,4.528,0,0,0,2.931,1.18c.884,0,1.417-.347,1.417-.916v-.028c0-.542-.337-.819-1.978-1.236-1.977-.5-3.254-1.041-3.254-2.971v-.028c0-1.763,1.431-2.93,3.437-2.93a5.72,5.72,0,0,1,3.647,1.236l-1.122,1.61a4.638,4.638,0,0,0-2.553-.958c-.828,0-1.262.375-1.262.847v.028c0,.639.421.847,2.118,1.277,1.992.514,3.114,1.222,3.114,2.916v.028C2235.6,682.576,2234.117,683.659,2232,683.659Z" transform="translate(-2195.113 -673.634)"/><path class="b" d="M2285.633,676.363v7.748h-2.16v-7.748h-2.987v-1.972h8.135v1.972Z" transform="translate(-2237.623 -674.224)"/><path class="b" d="M2339.36,683.57a5.006,5.006,0,0,1-5.2-5v-.028a5.222,5.222,0,0,1,10.435-.028v.028A5.053,5.053,0,0,1,2339.36,683.57Zm2.973-5.027a2.967,2.967,0,0,0-2.973-3.055,2.92,2.92,0,0,0-2.945,3.027v.028a2.967,2.967,0,0,0,2.973,3.055,2.92,2.92,0,0,0,2.945-3.027Z" transform="translate(-2280.957 -673.517)"/><path class="b" d="M2412.482,684.111l-4.755-6.179v6.179h-2.132v-9.72h1.991l4.6,5.985v-5.985h2.132v9.72Z" transform="translate(-2338.637 -674.224)"/><path class="b" d="M2470.406,684.111v-9.72h7.406v1.9h-5.26v1.972h4.629v1.9h-4.629v2.041h5.33v1.9Z" transform="translate(-2390.966 -674.224)"/></g><g transform="translate(1952.782 687.376)"><path class="b" d="M2058.665,748.46h-.726v-2.07h.726a1.038,1.038,0,1,1,0,2.07Zm0-1.854h-.49v1.638h.49a.82.82,0,1,0,0-1.638Z" transform="translate(-2057.939 -746.354)"/><path class="b" d="M2076.229,746.6h-1.276v.707h1.141v.213h-1.141v.724h1.291v.213h-1.526v-2.07h1.511Z" transform="translate(-2071.486 -746.354)"/><path class="b" d="M2089.931,747.187c.466.1.681.269.681.588,0,.358-.3.588-.714.588a1.23,1.23,0,0,1-.854-.331l.146-.171a1,1,0,0,0,.717.293c.28,0,.466-.145.466-.355s-.1-.3-.544-.4c-.481-.1-.7-.257-.7-.6a.614.614,0,0,1,.687-.568,1.1,1.1,0,0,1,.734.255l-.137.18a.923.923,0,0,0-.6-.225c-.272,0-.445.148-.445.337S2089.471,747.09,2089.931,747.187Z" transform="translate(-2083.053 -746.229)"/><path class="b" d="M2105.3,748.4h-.254l-.245-.547h-1.138l-.248.547h-.242l.953-2.085h.221Zm-1.066-1.812-.478,1.056h.953Z" transform="translate(-2094.459 -746.292)"/><path class="b" d="M2122.442,748.46l-.606-.8h-.6v.8H2121v-2.07h.9c.46,0,.756.245.756.618a.609.609,0,0,1-.568.606l.642.846Zm-.558-1.854h-.645v.84h.642c.314,0,.538-.16.538-.429S2122.221,746.606,2121.884,746.606Z" transform="translate(-2108.857 -746.354)"/><path class="b" d="M2138.305,748.46l-.606-.8h-.6v.8h-.236v-2.07h.9c.46,0,.755.245.755.618a.609.609,0,0,1-.567.606l.642.846Zm-.558-1.854h-.645v.84h.642c.313,0,.538-.16.538-.429S2138.084,746.606,2137.747,746.606Z" transform="translate(-2121.665 -746.354)"/><path class="b" d="M2153.311,748.345a1.07,1.07,0,1,1,1.069-1.073A1.045,1.045,0,0,1,2153.311,748.345Zm0-1.925a.818.818,0,0,0-.819.852.828.828,0,0,0,.825.858.818.818,0,0,0,.818-.852A.827.827,0,0,0,2153.311,746.42Z" transform="translate(-2134.083 -746.204)"/><path class="b" d="M2170.56,746.39h.236v1.854h1.177v.216h-1.413Z" transform="translate(-2148.87 -746.354)"/><path class="b" d="M2184.81,746.39h.236v1.854h1.177v.216h-1.413Z" transform="translate(-2160.375 -746.354)"/><path class="b" d="M2199.023,748.345a1.07,1.07,0,1,1,1.069-1.073A1.045,1.045,0,0,1,2199.023,748.345Zm0-1.925a.818.818,0,0,0-.819.852.828.828,0,0,0,.824.858.818.818,0,0,0,.818-.852A.827.827,0,0,0,2199.023,746.42Z" transform="translate(-2170.992 -746.204)"/><path class="b" d="M2216.368,747.187c.466.1.681.269.681.588,0,.358-.3.588-.713.588a1.231,1.231,0,0,1-.854-.331l.146-.171a1,1,0,0,0,.716.293c.282,0,.466-.145.466-.355s-.1-.3-.543-.4c-.481-.1-.7-.257-.7-.6a.614.614,0,0,1,.687-.568,1.1,1.1,0,0,1,.735.255l-.137.18a.925.925,0,0,0-.6-.225c-.271,0-.445.148-.445.337S2215.908,747.09,2216.368,747.187Z" transform="translate(-2185.139 -746.229)"/><path class="b" d="M2240.247,747.187c.466.1.681.269.681.588,0,.358-.3.588-.713.588a1.232,1.232,0,0,1-.855-.331l.147-.171a1,1,0,0,0,.717.293c.281,0,.466-.145.466-.355s-.1-.3-.544-.4c-.48-.1-.7-.257-.7-.6a.614.614,0,0,1,.687-.568,1.1,1.1,0,0,1,.735.255l-.137.18a.924.924,0,0,0-.6-.225c-.271,0-.445.148-.445.337S2239.788,747.09,2240.247,747.187Z" transform="translate(-2204.419 -746.229)"/><path class="b" d="M2256.221,747.576a.871.871,0,1,1-1.741.018v-1.2h.236v1.189a.612.612,0,0,0,.639.7.6.6,0,0,0,.63-.683v-1.2h.236Z" transform="translate(-2216.627 -746.354)"/><path class="b" d="M2271.244,747.187c.466.1.681.269.681.588,0,.358-.3.588-.714.588a1.232,1.232,0,0,1-.854-.331l.146-.171a1,1,0,0,0,.717.293c.28,0,.466-.145.466-.355s-.1-.3-.543-.4c-.481-.1-.7-.257-.7-.6a.613.613,0,0,1,.687-.568,1.1,1.1,0,0,1,.734.255l-.137.18a.922.922,0,0,0-.6-.225c-.272,0-.445.148-.445.337S2270.784,747.09,2271.244,747.187Z" transform="translate(-2229.446 -746.229)"/><path class="b" d="M2285.58,748.46h-.239v-1.854h-.7v-.216h1.643v.216h-.7Z" transform="translate(-2240.977 -746.354)"/><path class="b" d="M2301.626,746.6h-1.276v.707h1.141v.213h-1.141v.724h1.291v.213h-1.526v-2.07h1.511Z" transform="translate(-2253.473 -746.354)"/><path class="b" d="M2316.694,746.39h.23v2.07h-.188l-1.35-1.7v1.7h-.23v-2.07h.221l1.317,1.659Z" transform="translate(-2265.617 -746.354)"/><path class="b" d="M2332.223,748.46h-.239v-1.854h-.7v-.216h1.643v.216h-.7Z" transform="translate(-2278.637 -746.354)"/><path class="b" d="M2346.558,748.4h-.254l-.245-.547h-1.138l-.248.547h-.242l.953-2.085h.221Zm-1.066-1.812-.478,1.056h.953Z" transform="translate(-2289.253 -746.292)"/><path class="b" d="M2363.834,746.908a.5.5,0,0,1-.332.482c.248.074.448.216.448.5,0,.358-.3.568-.759.568h-.929v-2.07h.89C2363.565,746.39,2363.834,746.591,2363.834,746.908Zm-.239.033c0-.207-.164-.34-.463-.34h-.636v.713h.618C2363.4,747.313,2363.6,747.185,2363.6,746.94Zm.116.937c0-.228-.191-.358-.555-.358h-.66v.73h.7C2363.514,748.25,2363.711,748.111,2363.711,747.877Z" transform="translate(-2303.651 -746.354)"/><path class="b" d="M2378.109,746.39h.236v1.854h1.177v.216h-1.413Z" transform="translate(-2316.445 -746.354)"/><path class="b" d="M2393.87,746.6h-1.275v.707h1.141v.213h-1.141v.724h1.29v.213h-1.526v-2.07h1.511Z" transform="translate(-2327.95 -746.354)"/><path class="b" d="M2407.575,747.187c.466.1.681.269.681.588,0,.358-.3.588-.714.588a1.231,1.231,0,0,1-.854-.331l.146-.171a1,1,0,0,0,.717.293c.281,0,.466-.145.466-.355s-.1-.3-.543-.4c-.481-.1-.7-.257-.7-.6a.614.614,0,0,1,.687-.568,1.1,1.1,0,0,1,.734.255l-.137.18a.923.923,0,0,0-.6-.225c-.271,0-.445.148-.445.337S2407.115,747.09,2407.575,747.187Z" transform="translate(-2339.52 -746.229)"/></g><g transform="translate(1927.699 673.684)"><path class="b" d="M1941.419,728.9h4.938v-2.409l-6.642-4.3Z" transform="translate(-1937.4 -713.076)"/><path class="b" d="M1933.7,698.213l6.913,4.48v-6.741l-8.013-2.07Z" transform="translate(-1931.655 -690.167)"/><path class="b" d="M1942.359,678.387l3.945,1.019v-5.015h-6.655Z" transform="translate(-1937.347 -674.391)"/><path class="b" d="M1978.115,674.391v8.983l7.6-3.655,1.353-5.328Z" transform="translate(-1968.405 -674.391)"/><path class="b" d="M1929.093,674.391H1927.7l.734,2.891,3.177.821Z" transform="translate(-1927.698 -674.391)"/><path class="b" d="M2006.331,709.082l.456-1.794-2.281,1.1Z" transform="translate(-1989.713 -701.016)"/><path class="b" d="M1978.115,723.388h4.938l1.786-7.032-2.567-.981-4.156,2Z" transform="translate(-1968.405 -707.561)"/></g></g></svg>