<svg xmlns="http://www.w3.org/2000/svg" width="71.271" height="60.569" viewBox="0 0 71.271 60.569"><defs><style>.a{fill:#1e868c;}</style></defs><g transform="translate(0 3.082)"><g transform="translate(0 0)"><path class="a" d="M71.044,92.484a1.046,1.046,0,0,0-1.47-.17l-2.052,1.627L50.938,72.166l9.481-6.085a1.046,1.046,0,0,0-1.13-1.761l-10.435,6.7a1.057,1.057,0,0,0-.267,1.514l1.9,2.493-1.35,1.034-5.361-1.771a1.068,1.068,0,0,0-.328-.053H31.172a1.046,1.046,0,0,0-1.015.792l-.691,2.763-1.743-.734a1.047,1.047,0,0,0-.527-.075l-4.849.568L20.7,76.593l1.567-2.714a1.057,1.057,0,0,0-.383-1.429L1.569,60.721A1.046,1.046,0,0,0,.523,62.533l15.92,9.192L2.7,95.522l-1.134-.655A1.046,1.046,0,1,0,.523,96.679l5.528,3.192a1.056,1.056,0,0,0,1.429-.383l.8-1.385,2.257,1.2a4.393,4.393,0,0,0,5.259,6.2,4.29,4.29,0,0,0,.864,2.582,4.427,4.427,0,0,0,4.851,1.537A4.387,4.387,0,0,0,25.2,113.9a4.44,4.44,0,0,0,.705.057,4.349,4.349,0,0,0,1.33-.208,4.393,4.393,0,0,0,3.7,4.268,4.444,4.444,0,0,0,.705.056,4.36,4.36,0,0,0,2.566-.835l2.44-1.766a4.376,4.376,0,0,0,1.262-1.416l4.293,2.34a4.393,4.393,0,0,0,6.468-4.347,4.389,4.389,0,0,0,5.161-4.81A4.393,4.393,0,0,0,59,102.425a4.334,4.334,0,0,0,.791.073,4.411,4.411,0,0,0,1.247-.181,4.394,4.394,0,0,0,2.974-5.456,4.445,4.445,0,0,0-.31-.775l1.835-1.3.969,1.273a1.057,1.057,0,0,0,1.482.186l2.888-2.29A1.046,1.046,0,0,0,71.044,92.484ZM6.191,97.536l-1.676-.968,13.74-23.8,1.676.968Zm9.593,5.654a2.3,2.3,0,1,1-2.7-3.729l7.4-5.354a2.3,2.3,0,0,1,2.7,3.728Zm5.732,4.116a2.312,2.312,0,0,1-3.187-.479,2.379,2.379,0,0,1,.55-3.294l5.531-4a3.767,3.767,0,0,1,.613-.371,2.287,2.287,0,0,1,2.716.722,2.323,2.323,0,0,1-.476,3.266Zm5.732,4.116a2.3,2.3,0,0,1-2.7-3.728l3.941-2.852.154-.111a2.29,2.29,0,0,1,3.174.463,2.323,2.323,0,0,1-.476,3.266Zm9.1.817a2.282,2.282,0,0,1-.928,1.532l-2.44,1.766a2.3,2.3,0,0,1-2.7-3.729l2.286-1.654.155-.112a2.315,2.315,0,0,1,3.174.463A2.282,2.282,0,0,1,36.35,112.239ZM61.817,99.2a2.323,2.323,0,0,1-3.122.919L46.6,93.532a1.046,1.046,0,0,0-1,1.837l10.135,5.524a2.3,2.3,0,1,1-2.2,4.041l-10.283-5.6a1.046,1.046,0,0,0-1,1.837l8.325,4.538a2.3,2.3,0,0,1-2.2,4.04l-8.716-4.751a1.046,1.046,0,0,0-1,1.837l6.756,3.683a2.3,2.3,0,1,1-2.2,4.041l-4.739-2.583a4.406,4.406,0,0,0-4.175-4.46c.02-.093.038-.187.051-.281a4.406,4.406,0,0,0-4.131-5.03c.02-.093.038-.187.051-.281a4.406,4.406,0,0,0-4.131-5.03c.02-.093.038-.187.051-.281a4.393,4.393,0,0,0-6.923-4.193l-7.3,5.281-2.634-1.4L19.652,78.4,21.6,79.533a1.048,1.048,0,0,0,.647.134l4.922-.576,1.788.753-1.027,4.11a1.053,1.053,0,0,0-.031.254v8.926a5.509,5.509,0,1,0,11.018,0V84.508l.19-.3L60.9,96.083A2.323,2.323,0,0,1,61.817,99.2Zm.5-4.7a4.475,4.475,0,0,0-.417-.259L40.214,82.426l.8-1.287a1.046,1.046,0,0,0-1.774-1.109L36.98,83.653a1.048,1.048,0,0,0-.159.554v8.926a3.417,3.417,0,0,1-6.834,0v-8.8l2-8.009H43.277L49,78.219a1.054,1.054,0,0,0,.964-.163l1.785-1.367L64.267,93.12Z" transform="translate(0 -60.58)"/></g></g><g transform="translate(63.318 0)"><g transform="translate(0 0)"><path class="a" d="M462.656,38.92a1.046,1.046,0,0,0-1.445-.315l-5.861,3.761a1.046,1.046,0,1,0,1.13,1.761l5.861-3.761A1.046,1.046,0,0,0,462.656,38.92Z" transform="translate(-454.869 -38.439)"/></g></g></svg>