<svg xmlns="http://www.w3.org/2000/svg" width="66.047" height="60.853" viewBox="0 0 66.047 60.853"><defs><style>.a{fill:#1e868c;}</style></defs><path class="a" d="M65.079,78.959h-1.1V58.219a.967.967,0,0,0-.214-.607L33.777,20.4a.968.968,0,0,0-1.507,0L2.282,57.613a.967.967,0,0,0-.214.607v20.74H.967a.967.967,0,1,0,0,1.934H24.751a9.249,9.249,0,0,0,9.24-9.236v-.1a12.356,12.356,0,0,0,11.374-12.3c0-4.445-2.038-9.388-5.894-14.294a42.447,42.447,0,0,0-5.835-6.095.968.968,0,0,0-1.225,0,42.438,42.438,0,0,0-5.835,6.095c-3.856,4.906-5.894,9.848-5.894,14.294a12.356,12.356,0,0,0,11.375,12.3v.1a7.312,7.312,0,0,1-7.3,7.3H8.139V60.019l24.884-30.88L44.261,43.085a.967.967,0,0,0,1.507-1.213L33.777,26.991a.968.968,0,0,0-1.507,0L6.418,59.071a.967.967,0,0,0-.214.607V78.959H4V58.56l29.02-36.011L62.043,58.56v20.4h-2.2V59.678a.967.967,0,0,0-.214-.607L48.455,45.206a.967.967,0,0,0-1.507,1.213l10.959,13.6v18.94H34.057a.967.967,0,1,0,0,1.934H65.079a.967.967,0,1,0,0-1.934ZM27.114,47.478l4.942,4.94v4.5L28.02,52.884a.967.967,0,1,0-1.368,1.368l5.4,5.4v4.5l-8.874-8.871A25.312,25.312,0,0,1,27.114,47.478ZM40.7,50.215l-6.706,6.7v-4.5l4.941-4.94A31.817,31.817,0,0,1,40.7,50.215Zm2.168,5.069-8.874,8.87v-4.5l7.645-7.642a20.409,20.409,0,0,1,1.229,3.272ZM33.991,69.61V66.889l9.332-9.328a13.746,13.746,0,0,1,.108,1.692A10.418,10.418,0,0,1,33.991,69.61Zm3.762-23.688-3.762,3.761V41.8A43.716,43.716,0,0,1,37.753,45.921Zm-5.7-4.124v7.885l-3.763-3.761A43.713,43.713,0,0,1,32.056,41.8Zm-9.44,17.455a13.745,13.745,0,0,1,.108-1.692l9.332,9.329v2.72A10.418,10.418,0,0,1,22.616,59.253Z" transform="translate(0 -20.04)"/></svg>