<svg xmlns="http://www.w3.org/2000/svg" width="60.951" height="61" viewBox="0 0 60.951 61"><defs><style>.a{fill:#1e868c;}</style></defs><path class="a" d="M60.369,7.109A24.544,24.544,0,0,0,58.243,2.27a.912.912,0,0,0-.964-.407A24.538,24.538,0,0,0,52.327,3.71c-3.512,1.754-5.966,4.095-7.1,6.769a13.112,13.112,0,0,0-.408,7.958,25.34,25.34,0,0,0-4.765-4.146,36.91,36.91,0,0,0-4.141-6.348A.894.894,0,0,0,34.529,9.07a35.779,35.779,0,0,1,3.3,4.85l-8.14-1.587L21.953,1.785a12.607,12.607,0,0,1,2.254.23,15.433,15.433,0,0,1,6.981,3.6.894.894,0,0,0,1.159-1.36,17.19,17.19,0,0,0-7.8-3.992C20.456-.54,15.681.511,10.74,3.3A35.677,35.677,0,0,0,4.491,7.767a.946.946,0,0,0-.106,1.227,36.461,36.461,0,0,0,4.008,6.291,27.943,27.943,0,0,0,4.224,4.342q-.624.523-1.213,1.1a20.659,20.659,0,0,0,6.683,33.908.894.894,0,0,0,.672-1.656,18.866,18.866,0,0,1-3.865-2.126A10.068,10.068,0,0,0,13.377,43.8c-.283-.441.564-2.174,1.069-3.209a16.754,16.754,0,0,0,1.312-3.208,2.445,2.445,0,0,0-.869-2.679,6.6,6.6,0,0,0-2.124-.942,4.571,4.571,0,0,1-1.167-.457,11.912,11.912,0,0,1-1.513-2.462,15.277,15.277,0,0,0-1.633-2.684,19,19,0,0,1,5.641-7.432,15.629,15.629,0,0,0,7.53,2.8C18.464,25.975,17.442,29.1,18.9,32.1c1.705,3.5,5.215,2.945,8.312,2.452.536-.086,1.09-.174,1.621-.24.2-.025.259.029.3.065.678.6.658,3.484.643,5.587-.02,2.91-.038,5.658,1.045,7.069a2.728,2.728,0,0,0,2.244,1.087,4.5,4.5,0,0,0,1.764-.4c2.7-1.154,5.5-4.628,5.069-7.376-.373-2.4-.621-3.99-.038-5.27.539-1.184,1.841-2.281,4.406-3.68A18.87,18.87,0,0,1,23.763,54.239a.894.894,0,0,0-.2,1.777,20.772,20.772,0,0,0,16.726-5.765,20.646,20.646,0,0,0-3.178-32.066c1.181-.842,2.06-1.57,2.548-1.992A23.726,23.726,0,1,1,2.445,31.623a.894.894,0,0,0-1.763-.291,25.505,25.505,0,0,0,21.01,29.322A25.859,25.859,0,0,0,25.9,61,25.522,25.522,0,0,0,49.244,25.308a25.736,25.736,0,0,0,4.12-1.623c3.512-1.754,5.966-4.095,7.1-6.769s1.1-6.066-.091-9.806ZM8.5,31.681a11.128,11.128,0,0,0,1.947,3,5.125,5.125,0,0,0,1.789.795c1.747.537,1.949.8,1.782,1.491a15.6,15.6,0,0,1-1.181,2.844c-.923,1.888-1.795,3.671-.968,4.959a8.5,8.5,0,0,1,1.352,4.741,19.046,19.046,0,0,1-5.507-19.27c.263.451.539.974.786,1.442ZM51.739,14.12,49.2,7.965A16.724,16.724,0,0,1,53.09,5.327a23.853,23.853,0,0,1,2.824-1.189Zm5.822-9.288a23.97,23.97,0,0,1,1.118,2.857A17.085,17.085,0,0,1,59.488,12l-5.951,2.455ZM46.876,11.175a8.511,8.511,0,0,1,1-1.735l2.891,7.005-2.594,6.2a23.726,23.726,0,0,1-1.158-2.943c-.731-2.31-1.347-5.666-.137-8.531ZM52.6,22.068a23.741,23.741,0,0,1-2.735,1.158l2.692-6.436,6.853-2.828a8.621,8.621,0,0,1-.6,2.258c-1.21,2.865-4.047,4.762-6.213,5.848Zm-32.223-.509c-.316-.062-.627-.137-.935-.223l9.89-7.25,8.144,1.587c-2.967,2.337-10.186,7.24-17.1,5.886ZM11.34,15.968A34.79,34.79,0,0,1,6.785,9.69l10.363,2.021ZM13.17,4.045,17.506,9.96,7.076,7.926A35.228,35.228,0,0,1,13.17,4.045Zm6.921,6.418-5.257-7.17A20.1,20.1,0,0,1,19.83,1.911L27.1,11.83Zm-.556,1.712,7.412,1.445-9.512,6.972a18.488,18.488,0,0,1-4.821-3.343Zm24.248,17.45c-3.222,1.716-4.8,3.065-5.547,4.709-.8,1.766-.509,3.661-.1,6.285.241,1.547-1.6,4.428-4.006,5.459-.891.382-1.526.337-1.888-.134-.71-.924-.691-3.721-.675-5.968.021-3.109.04-5.794-1.243-6.935a2.106,2.106,0,0,0-1.707-.5c-.562.07-1.132.161-1.682.249-3.285.523-5.352.733-6.423-1.468-1.735-3.566,1.777-6.207,3.368-7.177a5.661,5.661,0,0,0,.9-.689,25.982,25.982,0,0,0,10.713-4.175,18.969,18.969,0,0,1,8.289,10.348Zm0,0" transform="translate(-0.335 0)"/></svg>